<?xml version="1.0" encoding="UTF-8"?>
<!DOCTYPE svg PUBLIC "-//W3C//DTD SVG 1.1//EN" "http://www.w3.org/Graphics/SVG/1.1/DTD/svg11.dtd">
<!-- Creator: CorelDRAW 2017 -->
<svg xmlns="http://www.w3.org/2000/svg" xml:space="preserve" width="190px" height="55px" version="1.1" style="shape-rendering:geometricPrecision; text-rendering:geometricPrecision; image-rendering:optimizeQuality; fill-rule:evenodd; clip-rule:evenodd"
viewBox="0 0 190 55"
 xmlns:xlink="http://www.w3.org/1999/xlink">
 <defs>
  <style type="text/css">
   <![CDATA[
    .fil0 {fill:none}
    .fil4 {fill:#2FB5B3}
    .fil3 {fill:#4E5A62}
    .fil1 {fill:#2FB5B3;fill-rule:nonzero}
    .fil2 {fill:#4E5A62;fill-rule:nonzero}
   ]]>
  </style>
 </defs>
 <g id="Layer_x0020_1">
  <metadata id="CorelCorpID_0Corel-Layer"/>
  <rect class="fil0" width="190" height="55"/>
  <g id="_2364822566192">
   <path class="fil1" d="M83.23 12.67c0,1.37 -0.22,2.61 -0.68,3.72 -0.45,1.1 -1.09,2.04 -1.94,2.83 -0.84,0.77 -1.87,1.37 -3.09,1.8 -1.23,0.43 -2.68,0.64 -4.38,0.64l-3.12 0 0 9.88c0,0.11 -0.03,0.21 -0.09,0.29 -0.07,0.09 -0.17,0.16 -0.3,0.21 -0.14,0.05 -0.32,0.09 -0.55,0.13 -0.24,0.03 -0.53,0.05 -0.89,0.05 -0.35,0 -0.64,-0.02 -0.88,-0.05 -0.23,-0.04 -0.42,-0.08 -0.56,-0.13 -0.14,-0.05 -0.23,-0.12 -0.29,-0.21 -0.06,-0.08 -0.09,-0.18 -0.09,-0.29l0 -25.35c0,-0.56 0.15,-0.97 0.45,-1.21 0.3,-0.24 0.62,-0.36 0.99,-0.36l5.88 0c0.59,0 1.16,0.02 1.7,0.07 0.55,0.05 1.19,0.16 1.93,0.32 0.75,0.17 1.5,0.47 2.28,0.91 0.76,0.45 1.42,1 1.96,1.65 0.54,0.66 0.95,1.41 1.24,2.27 0.29,0.85 0.43,1.8 0.43,2.83zm-3.82 0.29c0,-1.13 -0.21,-2.06 -0.62,-2.81 -0.42,-0.75 -0.94,-1.31 -1.56,-1.68 -0.62,-0.37 -1.26,-0.61 -1.91,-0.7 -0.66,-0.1 -1.3,-0.15 -1.92,-0.15l-3.38 0 0 11.04 3.3 0c1.1,0 2.02,-0.15 2.74,-0.43 0.73,-0.28 1.34,-0.67 1.84,-1.18 0.49,-0.5 0.87,-1.1 1.12,-1.8 0.26,-0.71 0.39,-1.47 0.39,-2.29z"/>
   <path id="1" class="fil1" d="M97.37 32.09l-2.54 7.03c-0.09,0.23 -0.3,0.4 -0.65,0.52 -0.34,0.13 -0.87,0.18 -1.58,0.18 -0.37,0 -0.67,-0.01 -0.89,-0.05 -0.23,-0.03 -0.4,-0.1 -0.52,-0.18 -0.12,-0.09 -0.19,-0.2 -0.2,-0.34 -0.01,-0.14 0.02,-0.31 0.1,-0.51l2.64 -6.65c-0.13,-0.06 -0.25,-0.16 -0.36,-0.28 -0.12,-0.13 -0.2,-0.26 -0.24,-0.4l-6.81 -18.26c-0.12,-0.29 -0.17,-0.53 -0.17,-0.7 0,-0.17 0.05,-0.3 0.17,-0.41 0.11,-0.1 0.3,-0.16 0.55,-0.2 0.25,-0.03 0.59,-0.05 1.02,-0.05 0.42,0 0.75,0.01 1,0.03 0.24,0.02 0.43,0.07 0.57,0.12 0.14,0.05 0.24,0.14 0.31,0.24 0.06,0.11 0.13,0.26 0.2,0.44l5.45 15.32 0.07 0 5.26 -15.4c0.08,-0.28 0.19,-0.45 0.31,-0.52 0.11,-0.08 0.3,-0.14 0.53,-0.18 0.25,-0.03 0.6,-0.05 1.05,-0.05 0.4,0 0.72,0.02 0.98,0.05 0.25,0.04 0.44,0.1 0.55,0.2 0.13,0.11 0.18,0.24 0.18,0.41 0,0.17 -0.04,0.38 -0.12,0.64l-6.86 19z"/>
   <path id="2" class="fil1" d="M127.09 28.22c0,0.22 -0.01,0.42 -0.02,0.59 -0.01,0.17 -0.04,0.31 -0.07,0.44 -0.04,0.13 -0.08,0.24 -0.14,0.35 -0.06,0.09 -0.16,0.21 -0.3,0.35 -0.14,0.14 -0.44,0.36 -0.89,0.65 -0.45,0.29 -1.02,0.57 -1.69,0.85 -0.68,0.27 -1.44,0.51 -2.31,0.7 -0.88,0.19 -1.83,0.28 -2.86,0.28 -1.79,0 -3.4,-0.29 -4.84,-0.89 -1.43,-0.59 -2.66,-1.47 -3.67,-2.63 -1.01,-1.16 -1.8,-2.6 -2.34,-4.3 -0.54,-1.71 -0.82,-3.67 -0.82,-5.89 0,-2.29 0.3,-4.31 0.89,-6.1 0.58,-1.79 1.41,-3.3 2.47,-4.54 1.07,-1.24 2.34,-2.18 3.82,-2.83 1.48,-0.65 3.12,-0.98 4.92,-0.98 0.8,0 1.57,0.07 2.32,0.22 0.75,0.15 1.45,0.33 2.08,0.56 0.64,0.22 1.21,0.48 1.71,0.78 0.49,0.29 0.84,0.53 1.02,0.72 0.2,0.19 0.32,0.34 0.38,0.44 0.06,0.09 0.1,0.21 0.14,0.35 0.03,0.13 0.06,0.29 0.08,0.47 0.03,0.19 0.03,0.41 0.03,0.66 0,0.29 -0.01,0.53 -0.04,0.73 -0.03,0.2 -0.07,0.37 -0.13,0.51 -0.05,0.13 -0.12,0.23 -0.2,0.29 -0.08,0.07 -0.18,0.1 -0.28,0.1 -0.21,0 -0.48,-0.14 -0.85,-0.42 -0.35,-0.27 -0.81,-0.58 -1.37,-0.91 -0.57,-0.33 -1.25,-0.64 -2.05,-0.91 -0.81,-0.28 -1.77,-0.42 -2.9,-0.42 -1.23,0 -2.34,0.25 -3.34,0.74 -1.01,0.49 -1.87,1.21 -2.58,2.15 -0.71,0.95 -1.27,2.11 -1.66,3.48 -0.39,1.37 -0.59,2.94 -0.59,4.69 0,1.74 0.19,3.29 0.57,4.63 0.37,1.34 0.92,2.46 1.62,3.36 0.7,0.9 1.57,1.58 2.59,2.04 1.03,0.46 2.19,0.69 3.49,0.69 1.09,0 2.05,-0.14 2.87,-0.41 0.82,-0.26 1.51,-0.56 2.09,-0.9 0.58,-0.33 1.05,-0.63 1.42,-0.89 0.37,-0.27 0.66,-0.41 0.87,-0.41 0.1,0 0.19,0.02 0.26,0.07 0.08,0.04 0.13,0.12 0.17,0.24 0.04,0.12 0.08,0.28 0.1,0.49 0.02,0.21 0.03,0.48 0.03,0.81z"/>
   <path id="3" class="fil1" d="M149.26 21.78c0,1.56 -0.2,2.99 -0.61,4.3 -0.41,1.31 -1.02,2.44 -1.83,3.39 -0.82,0.94 -1.84,1.68 -3.05,2.21 -1.23,0.53 -2.65,0.8 -4.26,0.8 -1.57,0 -2.94,-0.23 -4.1,-0.7 -1.17,-0.47 -2.14,-1.15 -2.92,-2.04 -0.77,-0.89 -1.35,-1.98 -1.73,-3.25 -0.39,-1.27 -0.58,-2.71 -0.58,-4.33 0,-1.55 0.21,-2.99 0.61,-4.29 0.4,-1.31 1.01,-2.44 1.82,-3.39 0.81,-0.95 1.83,-1.68 3.04,-2.21 1.22,-0.52 2.64,-0.78 4.26,-0.78 1.57,0 2.94,0.23 4.11,0.7 1.17,0.46 2.14,1.14 2.91,2.03 0.78,0.9 1.36,1.98 1.75,3.25 0.39,1.27 0.58,2.71 0.58,4.31zm-3.65 0.22c0,-1.03 -0.09,-2.01 -0.29,-2.93 -0.19,-0.92 -0.5,-1.72 -0.95,-2.42 -0.43,-0.69 -1.03,-1.24 -1.79,-1.64 -0.74,-0.41 -1.68,-0.61 -2.81,-0.61 -1.03,0 -1.92,0.18 -2.67,0.55 -0.74,0.37 -1.35,0.89 -1.84,1.56 -0.48,0.68 -0.84,1.47 -1.07,2.39 -0.24,0.92 -0.36,1.93 -0.36,3.02 0,1.05 0.1,2.03 0.29,2.95 0.19,0.92 0.51,1.73 0.96,2.41 0.45,0.69 1.05,1.24 1.8,1.63 0.75,0.41 1.69,0.61 2.81,0.61 1.03,0 1.91,-0.18 2.66,-0.55 0.76,-0.37 1.37,-0.88 1.86,-1.55 0.48,-0.66 0.84,-1.46 1.06,-2.38 0.23,-0.92 0.34,-1.94 0.34,-3.04z"/>
   <path id="4" class="fil1" d="M170.88 31.56c0,0.11 -0.03,0.21 -0.09,0.29 -0.06,0.07 -0.14,0.14 -0.27,0.2 -0.13,0.05 -0.31,0.1 -0.54,0.12 -0.23,0.03 -0.51,0.05 -0.85,0.05 -0.36,0 -0.65,-0.02 -0.87,-0.05 -0.24,-0.02 -0.41,-0.07 -0.54,-0.12 -0.13,-0.06 -0.22,-0.13 -0.28,-0.2 -0.05,-0.08 -0.08,-0.18 -0.08,-0.29l0 -11.19c0,-1.09 -0.09,-1.97 -0.26,-2.63 -0.16,-0.67 -0.41,-1.24 -0.74,-1.73 -0.32,-0.47 -0.73,-0.84 -1.25,-1.1 -0.51,-0.25 -1.11,-0.38 -1.78,-0.38 -0.88,0 -1.75,0.31 -2.61,0.93 -0.88,0.63 -1.79,1.54 -2.75,2.74l0 13.36c0,0.11 -0.03,0.21 -0.09,0.29 -0.05,0.07 -0.14,0.14 -0.27,0.2 -0.13,0.05 -0.31,0.1 -0.54,0.12 -0.22,0.03 -0.51,0.05 -0.87,0.05 -0.34,0 -0.63,-0.02 -0.85,-0.05 -0.23,-0.02 -0.41,-0.07 -0.55,-0.12 -0.13,-0.06 -0.23,-0.13 -0.28,-0.2 -0.05,-0.08 -0.07,-0.18 -0.07,-0.29l0 -19.11c0,-0.12 0.02,-0.21 0.06,-0.29 0.05,-0.07 0.13,-0.14 0.26,-0.21 0.13,-0.06 0.29,-0.11 0.49,-0.13 0.2,-0.02 0.46,-0.03 0.79,-0.03 0.31,0 0.57,0.01 0.78,0.03 0.21,0.02 0.36,0.07 0.48,0.13 0.11,0.07 0.2,0.14 0.25,0.21 0.04,0.08 0.07,0.17 0.07,0.29l0 2.53c1.07,-1.21 2.14,-2.1 3.21,-2.65 1.06,-0.56 2.14,-0.84 3.22,-0.84 1.27,0 2.34,0.21 3.21,0.64 0.87,0.44 1.57,1.02 2.11,1.73 0.53,0.73 0.92,1.57 1.15,2.54 0.23,0.98 0.35,2.14 0.35,3.5l0 11.66z"/>
   <path id="5" class="fil1" d="M187.5 4.59c0,0.27 -0.01,0.49 -0.04,0.65 -0.03,0.16 -0.06,0.29 -0.1,0.39 -0.03,0.1 -0.08,0.17 -0.13,0.21 -0.06,0.03 -0.13,0.05 -0.21,0.05 -0.11,0 -0.23,-0.03 -0.38,-0.1 -0.15,-0.06 -0.33,-0.13 -0.54,-0.21 -0.21,-0.08 -0.47,-0.15 -0.76,-0.21 -0.29,-0.07 -0.63,-0.1 -1.01,-0.1 -0.52,0 -0.97,0.09 -1.34,0.26 -0.36,0.17 -0.67,0.44 -0.89,0.8 -0.23,0.36 -0.39,0.83 -0.49,1.4 -0.1,0.58 -0.15,1.28 -0.15,2.11l0 2.08 4.26 0c0.11,0 0.2,0.02 0.28,0.07 0.08,0.05 0.15,0.14 0.21,0.26 0.07,0.12 0.12,0.27 0.15,0.46 0.04,0.18 0.06,0.41 0.06,0.67 0,0.52 -0.07,0.89 -0.19,1.11 -0.13,0.23 -0.3,0.34 -0.51,0.34l-4.26 0 0 16.73c0,0.11 -0.03,0.21 -0.09,0.29 -0.05,0.07 -0.15,0.14 -0.28,0.2 -0.14,0.05 -0.32,0.1 -0.54,0.12 -0.23,0.03 -0.51,0.05 -0.85,0.05 -0.34,0 -0.62,-0.02 -0.85,-0.05 -0.22,-0.02 -0.4,-0.07 -0.54,-0.12 -0.13,-0.06 -0.23,-0.13 -0.28,-0.2 -0.06,-0.08 -0.09,-0.18 -0.09,-0.29l0 -16.73 -2.71 0c-0.22,0 -0.4,-0.11 -0.51,-0.34 -0.11,-0.22 -0.17,-0.59 -0.17,-1.11 0,-0.26 0.02,-0.49 0.04,-0.67 0.03,-0.19 0.08,-0.34 0.13,-0.46 0.05,-0.12 0.13,-0.21 0.21,-0.26 0.09,-0.05 0.19,-0.07 0.3,-0.07l2.71 0 0 -1.98c0,-1.34 0.12,-2.48 0.37,-3.44 0.25,-0.95 0.63,-1.74 1.14,-2.35 0.51,-0.61 1.15,-1.07 1.92,-1.36 0.77,-0.28 1.68,-0.43 2.74,-0.43 0.49,0 0.97,0.04 1.44,0.14 0.47,0.09 0.83,0.19 1.08,0.29 0.26,0.11 0.42,0.21 0.51,0.29 0.09,0.08 0.16,0.2 0.21,0.33 0.06,0.14 0.1,0.3 0.12,0.49 0.02,0.19 0.03,0.42 0.03,0.69z"/>
   <path class="fil2" d="M74.27 52.19c0,0.05 -0.02,0.1 -0.05,0.14 -0.04,0.04 -0.09,0.07 -0.17,0.1 -0.08,0.02 -0.18,0.05 -0.31,0.06 -0.13,0.02 -0.3,0.03 -0.49,0.03 -0.2,0 -0.37,-0.01 -0.5,-0.03 -0.14,-0.01 -0.24,-0.04 -0.32,-0.06 -0.07,-0.03 -0.13,-0.06 -0.16,-0.1 -0.03,-0.04 -0.05,-0.09 -0.05,-0.14l0 -4.1 -3.8 0 0 4.1c0,0.05 -0.01,0.1 -0.05,0.14 -0.03,0.04 -0.08,0.07 -0.16,0.1 -0.08,0.02 -0.18,0.05 -0.31,0.06 -0.13,0.02 -0.3,0.03 -0.5,0.03 -0.2,0 -0.36,-0.01 -0.5,-0.03 -0.13,-0.01 -0.23,-0.04 -0.31,-0.06 -0.08,-0.03 -0.14,-0.06 -0.17,-0.1 -0.03,-0.04 -0.05,-0.09 -0.05,-0.14l0 -9.57c0,-0.05 0.02,-0.1 0.05,-0.14 0.03,-0.04 0.09,-0.08 0.17,-0.1 0.08,-0.03 0.18,-0.05 0.31,-0.06 0.14,-0.02 0.3,-0.03 0.5,-0.03 0.2,0 0.37,0.01 0.5,0.03 0.13,0.01 0.23,0.03 0.31,0.06 0.08,0.02 0.13,0.06 0.16,0.1 0.04,0.04 0.05,0.09 0.05,0.14l0 3.73 3.8 0 0 -3.73c0,-0.05 0.02,-0.1 0.05,-0.14 0.03,-0.04 0.09,-0.08 0.16,-0.1 0.08,-0.03 0.18,-0.05 0.32,-0.06 0.13,-0.02 0.3,-0.03 0.5,-0.03 0.19,0 0.36,0.01 0.49,0.03 0.13,0.01 0.23,0.03 0.31,0.06 0.08,0.02 0.13,0.06 0.17,0.1 0.03,0.04 0.05,0.09 0.05,0.14l0 9.57z"/>
   <path id="1" class="fil2" d="M80.57 48.62l0 3.57c0,0.05 -0.02,0.1 -0.06,0.14 -0.03,0.04 -0.09,0.07 -0.16,0.1 -0.08,0.02 -0.19,0.05 -0.32,0.06 -0.14,0.02 -0.3,0.03 -0.5,0.03 -0.2,0 -0.37,-0.01 -0.5,-0.03 -0.13,-0.01 -0.23,-0.04 -0.32,-0.06 -0.08,-0.03 -0.13,-0.06 -0.16,-0.1 -0.04,-0.04 -0.05,-0.09 -0.05,-0.14l0 -3.57 -2.77 -5.51c-0.1,-0.2 -0.17,-0.35 -0.2,-0.46 -0.03,-0.1 -0.01,-0.18 0.05,-0.24 0.06,-0.05 0.17,-0.09 0.33,-0.1 0.16,-0.01 0.39,-0.02 0.67,-0.02 0.24,0 0.43,0.01 0.58,0.02 0.14,0.01 0.25,0.03 0.34,0.06 0.08,0.03 0.14,0.06 0.18,0.11 0.04,0.05 0.08,0.11 0.11,0.18l1.14 2.49c0.1,0.24 0.21,0.49 0.32,0.76 0.11,0.27 0.22,0.54 0.33,0.84l0.02 0c0.1,-0.29 0.2,-0.56 0.3,-0.83 0.1,-0.26 0.21,-0.51 0.3,-0.75l1.12 -2.48c0.03,-0.08 0.06,-0.15 0.1,-0.2 0.04,-0.05 0.09,-0.09 0.17,-0.12 0.08,-0.03 0.19,-0.05 0.32,-0.06 0.14,-0.01 0.32,-0.02 0.54,-0.02 0.3,0 0.53,0.01 0.7,0.02 0.16,0.01 0.27,0.05 0.33,0.1 0.06,0.06 0.08,0.14 0.04,0.25 -0.03,0.11 -0.09,0.26 -0.18,0.45l-2.77 5.51z"/>
   <path id="2" class="fil2" d="M93.22 47.25c0,0.93 -0.12,1.73 -0.37,2.39 -0.24,0.66 -0.59,1.19 -1.04,1.61 -0.45,0.42 -1.01,0.73 -1.66,0.92 -0.65,0.2 -1.42,0.3 -2.32,0.3l-2.41 0c-0.18,0 -0.32,-0.05 -0.44,-0.16 -0.12,-0.1 -0.18,-0.26 -0.18,-0.49l0 -8.83c0,-0.23 0.06,-0.4 0.18,-0.5 0.12,-0.1 0.26,-0.15 0.44,-0.15l2.59 0c0.9,0 1.67,0.11 2.3,0.32 0.63,0.21 1.16,0.52 1.59,0.93 0.43,0.42 0.76,0.93 0.98,1.54 0.22,0.62 0.34,1.32 0.34,2.12zm-2.14 0.08c0,-0.48 -0.05,-0.93 -0.16,-1.34 -0.12,-0.41 -0.29,-0.77 -0.54,-1.07 -0.25,-0.3 -0.57,-0.54 -0.96,-0.71 -0.39,-0.17 -0.89,-0.25 -1.53,-0.25l-1.03 0 0 6.87 1.07 0c0.56,0 1.03,-0.07 1.42,-0.22 0.38,-0.14 0.71,-0.36 0.97,-0.66 0.25,-0.29 0.44,-0.66 0.57,-1.09 0.13,-0.44 0.19,-0.95 0.19,-1.53z"/>
   <path id="3" class="fil2" d="M100.9 51.66c0,0.15 -0.01,0.28 -0.02,0.38 -0.01,0.1 -0.03,0.18 -0.06,0.25 -0.03,0.06 -0.06,0.11 -0.1,0.13 -0.04,0.03 -0.08,0.05 -0.13,0.05l-5.08 0c-0.17,0 -0.31,-0.05 -0.43,-0.16 -0.12,-0.1 -0.18,-0.26 -0.18,-0.49l0 -8.83c0,-0.23 0.06,-0.4 0.18,-0.5 0.12,-0.1 0.26,-0.15 0.43,-0.15l5.06 0c0.04,0 0.09,0.01 0.12,0.04 0.04,0.03 0.07,0.07 0.1,0.14 0.02,0.06 0.04,0.15 0.06,0.25 0.01,0.1 0.02,0.23 0.02,0.39 0,0.14 -0.01,0.27 -0.02,0.37 -0.02,0.1 -0.04,0.19 -0.06,0.25 -0.03,0.06 -0.06,0.11 -0.1,0.14 -0.03,0.03 -0.08,0.04 -0.12,0.04l-3.61 0 0 2.47 3.04 0c0.05,0 0.09,0.01 0.13,0.04 0.04,0.03 0.07,0.07 0.1,0.13 0.02,0.06 0.04,0.14 0.06,0.25 0.01,0.1 0.01,0.22 0.01,0.36 0,0.16 0,0.28 -0.01,0.38 -0.02,0.1 -0.04,0.18 -0.06,0.24 -0.03,0.06 -0.06,0.1 -0.1,0.13 -0.04,0.02 -0.08,0.04 -0.13,0.04l-3.04 0 0 2.85 3.63 0c0.05,0 0.09,0.01 0.13,0.04 0.04,0.03 0.07,0.08 0.1,0.14 0.03,0.06 0.05,0.15 0.06,0.25 0.01,0.1 0.02,0.23 0.02,0.38z"/>
   <path id="4" class="fil2" d="M110.24 52.2c0,0.06 -0.02,0.11 -0.04,0.15 -0.02,0.04 -0.07,0.07 -0.14,0.1 -0.08,0.02 -0.2,0.04 -0.35,0.05 -0.15,0.01 -0.36,0.02 -0.61,0.02 -0.22,0 -0.4,-0.01 -0.53,-0.02 -0.13,-0.01 -0.23,-0.03 -0.31,-0.06 -0.07,-0.03 -0.13,-0.06 -0.16,-0.11 -0.03,-0.04 -0.05,-0.1 -0.08,-0.16l-0.91 -2.27c-0.11,-0.25 -0.22,-0.48 -0.32,-0.68 -0.1,-0.2 -0.22,-0.37 -0.35,-0.5 -0.13,-0.13 -0.28,-0.23 -0.45,-0.3 -0.16,-0.07 -0.36,-0.1 -0.57,-0.1l-0.65 0 0 3.87c0,0.05 -0.01,0.1 -0.05,0.14 -0.03,0.04 -0.09,0.07 -0.17,0.1 -0.07,0.02 -0.18,0.05 -0.31,0.06 -0.13,0.02 -0.3,0.03 -0.5,0.03 -0.19,0 -0.36,-0.01 -0.49,-0.03 -0.14,-0.01 -0.24,-0.04 -0.32,-0.06 -0.08,-0.03 -0.13,-0.06 -0.16,-0.1 -0.03,-0.04 -0.05,-0.09 -0.05,-0.14l0 -9.2c0,-0.23 0.06,-0.4 0.18,-0.5 0.11,-0.1 0.26,-0.15 0.43,-0.15l2.62 0c0.27,0 0.49,0.01 0.66,0.02 0.17,0.01 0.33,0.02 0.47,0.03 0.4,0.06 0.77,0.16 1.1,0.3 0.32,0.14 0.6,0.33 0.83,0.55 0.22,0.23 0.4,0.5 0.52,0.81 0.12,0.31 0.18,0.66 0.18,1.06 0,0.34 -0.05,0.65 -0.13,0.93 -0.09,0.28 -0.22,0.53 -0.38,0.75 -0.17,0.22 -0.38,0.4 -0.62,0.57 -0.25,0.16 -0.53,0.29 -0.84,0.39 0.15,0.07 0.29,0.16 0.43,0.26 0.13,0.11 0.26,0.23 0.37,0.38 0.12,0.15 0.23,0.32 0.34,0.51 0.1,0.19 0.2,0.41 0.3,0.65l0.86 2c0.08,0.2 0.13,0.34 0.15,0.44 0.03,0.09 0.05,0.16 0.05,0.21zm-2.66 -6.87c0,-0.34 -0.08,-0.62 -0.23,-0.85 -0.15,-0.23 -0.4,-0.39 -0.75,-0.48 -0.1,-0.03 -0.22,-0.05 -0.35,-0.07 -0.14,-0.01 -0.32,-0.02 -0.56,-0.02l-0.92 0 0 2.87 1.05 0c0.29,0 0.55,-0.04 0.77,-0.11 0.22,-0.07 0.4,-0.17 0.55,-0.3 0.14,-0.12 0.25,-0.27 0.33,-0.45 0.07,-0.18 0.11,-0.38 0.11,-0.59z"/>
   <path id="5" class="fil2" d="M120.03 51.7c0.06,0.19 0.11,0.34 0.12,0.45 0.02,0.11 0,0.19 -0.06,0.25 -0.06,0.05 -0.16,0.08 -0.31,0.1 -0.14,0.01 -0.34,0.02 -0.6,0.02 -0.26,0 -0.47,-0.01 -0.62,-0.02 -0.15,0 -0.26,-0.02 -0.34,-0.04 -0.08,-0.03 -0.13,-0.06 -0.16,-0.1 -0.04,-0.04 -0.06,-0.1 -0.08,-0.17l-0.67 -2.03 -3.82 0 -0.64 1.98c-0.02,0.07 -0.04,0.13 -0.08,0.18 -0.03,0.05 -0.09,0.09 -0.16,0.12 -0.08,0.03 -0.18,0.05 -0.32,0.06 -0.14,0.01 -0.32,0.02 -0.55,0.02 -0.24,0 -0.42,-0.01 -0.56,-0.03 -0.14,-0.01 -0.23,-0.05 -0.28,-0.11 -0.05,-0.06 -0.07,-0.15 -0.06,-0.26 0.02,-0.11 0.06,-0.25 0.12,-0.44l3.12 -8.98c0.03,-0.09 0.07,-0.16 0.11,-0.22 0.04,-0.05 0.11,-0.09 0.2,-0.12 0.09,-0.03 0.22,-0.05 0.38,-0.06 0.16,-0.01 0.37,-0.01 0.64,-0.01 0.31,0 0.55,0 0.74,0.01 0.18,0.01 0.32,0.03 0.42,0.06 0.1,0.03 0.18,0.07 0.22,0.13 0.04,0.06 0.08,0.13 0.11,0.23l3.13 8.98zm-4.64 -7.43l-0.01 0 -1.41 4.3 2.84 0 -1.42 -4.3z"/>
   <path id="6" class="fil2" d="M128.77 49.43c0,0.36 -0.05,0.68 -0.14,0.98 -0.1,0.29 -0.24,0.55 -0.41,0.77 -0.18,0.23 -0.39,0.42 -0.63,0.58 -0.24,0.17 -0.51,0.3 -0.8,0.4 -0.29,0.11 -0.6,0.18 -0.93,0.23 -0.34,0.05 -0.7,0.08 -1.11,0.08l-2.69 0c-0.17,0 -0.31,-0.05 -0.43,-0.16 -0.12,-0.1 -0.18,-0.26 -0.18,-0.49l0 -8.83c0,-0.23 0.06,-0.4 0.18,-0.5 0.12,-0.1 0.26,-0.15 0.43,-0.15l2.54 0c0.62,0 1.14,0.05 1.57,0.16 0.43,0.1 0.79,0.26 1.09,0.47 0.29,0.21 0.52,0.48 0.67,0.8 0.16,0.32 0.24,0.7 0.24,1.14 0,0.25 -0.04,0.48 -0.1,0.69 -0.06,0.22 -0.15,0.42 -0.27,0.59 -0.12,0.18 -0.27,0.34 -0.44,0.47 -0.18,0.14 -0.37,0.25 -0.6,0.33 0.29,0.06 0.55,0.15 0.8,0.28 0.24,0.13 0.45,0.3 0.63,0.5 0.18,0.21 0.32,0.45 0.43,0.73 0.1,0.27 0.15,0.58 0.15,0.93zm-2.65 -4.27c0,-0.2 -0.04,-0.38 -0.1,-0.55 -0.06,-0.16 -0.15,-0.29 -0.28,-0.4 -0.12,-0.11 -0.28,-0.19 -0.47,-0.25 -0.19,-0.05 -0.44,-0.08 -0.76,-0.08l-1.04 0 0 2.63 1.15 0c0.29,0 0.53,-0.04 0.71,-0.11 0.17,-0.07 0.32,-0.17 0.44,-0.29 0.12,-0.12 0.2,-0.27 0.26,-0.43 0.06,-0.16 0.09,-0.34 0.09,-0.52zm0.52 4.34c0,-0.23 -0.04,-0.44 -0.11,-0.63 -0.08,-0.18 -0.2,-0.34 -0.35,-0.46 -0.15,-0.13 -0.34,-0.23 -0.58,-0.3 -0.23,-0.06 -0.53,-0.1 -0.91,-0.1l-1.22 0 0 2.89 1.49 0c0.28,0 0.52,-0.03 0.72,-0.09 0.2,-0.06 0.36,-0.15 0.51,-0.27 0.14,-0.12 0.25,-0.26 0.33,-0.44 0.08,-0.17 0.12,-0.37 0.12,-0.6z"/>
   <path id="7" class="fil2" d="M138.57 51.7c0.06,0.19 0.1,0.34 0.12,0.45 0.01,0.11 -0.01,0.19 -0.06,0.25 -0.06,0.05 -0.16,0.08 -0.31,0.1 -0.14,0.01 -0.35,0.02 -0.6,0.02 -0.27,0 -0.48,-0.01 -0.62,-0.02 -0.15,0 -0.27,-0.02 -0.35,-0.04 -0.07,-0.03 -0.13,-0.06 -0.16,-0.1 -0.03,-0.04 -0.06,-0.1 -0.08,-0.17l-0.66 -2.03 -3.82 0 -0.64 1.98c-0.02,0.07 -0.05,0.13 -0.08,0.18 -0.03,0.05 -0.09,0.09 -0.16,0.12 -0.08,0.03 -0.19,0.05 -0.32,0.06 -0.14,0.01 -0.32,0.02 -0.55,0.02 -0.24,0 -0.43,-0.01 -0.56,-0.03 -0.14,-0.01 -0.23,-0.05 -0.28,-0.11 -0.06,-0.06 -0.07,-0.15 -0.06,-0.26 0.02,-0.11 0.06,-0.25 0.12,-0.44l3.12 -8.98c0.03,-0.09 0.06,-0.16 0.11,-0.22 0.04,-0.05 0.1,-0.09 0.2,-0.12 0.09,-0.03 0.21,-0.05 0.38,-0.06 0.16,-0.01 0.37,-0.01 0.64,-0.01 0.31,0 0.55,0 0.73,0.01 0.19,0.01 0.33,0.03 0.43,0.06 0.1,0.03 0.17,0.07 0.22,0.13 0.04,0.06 0.08,0.13 0.11,0.23l3.13 8.98zm-4.65 -7.43l0 0 -1.41 4.3 2.84 0 -1.43 -4.3z"/>
   <path id="8" class="fil2" d="M148.4 47.25c0,0.93 -0.12,1.73 -0.36,2.39 -0.24,0.66 -0.59,1.19 -1.05,1.61 -0.45,0.42 -1,0.73 -1.65,0.92 -0.65,0.2 -1.42,0.3 -2.32,0.3l-2.42 0c-0.17,0 -0.32,-0.05 -0.43,-0.16 -0.12,-0.1 -0.18,-0.26 -0.18,-0.49l0 -8.83c0,-0.23 0.06,-0.4 0.18,-0.5 0.11,-0.1 0.26,-0.15 0.43,-0.15l2.6 0c0.9,0 1.67,0.11 2.29,0.32 0.63,0.21 1.16,0.52 1.59,0.93 0.43,0.42 0.76,0.93 0.99,1.54 0.22,0.62 0.33,1.32 0.33,2.12zm-2.13 0.08c0,-0.48 -0.05,-0.93 -0.17,-1.34 -0.11,-0.41 -0.29,-0.77 -0.54,-1.07 -0.24,-0.3 -0.56,-0.54 -0.95,-0.71 -0.39,-0.17 -0.9,-0.25 -1.53,-0.25l-1.04 0 0 6.87 1.07 0c0.57,0 1.04,-0.07 1.43,-0.22 0.38,-0.14 0.7,-0.36 0.96,-0.66 0.26,-0.29 0.45,-0.66 0.58,-1.09 0.13,-0.44 0.19,-0.95 0.19,-1.53z"/>
   <path id="9" class="fil2" d="M160.09 51.63c0,0.15 -0.01,0.28 -0.02,0.39 -0.01,0.11 -0.03,0.19 -0.06,0.26 -0.02,0.07 -0.06,0.12 -0.1,0.14 -0.04,0.03 -0.09,0.05 -0.14,0.05l-5.83 0c-0.11,0 -0.21,-0.01 -0.29,-0.03 -0.08,-0.03 -0.15,-0.07 -0.21,-0.13 -0.05,-0.06 -0.09,-0.14 -0.11,-0.26 -0.02,-0.11 -0.04,-0.26 -0.04,-0.44 0,-0.18 0.01,-0.32 0.03,-0.45 0.01,-0.12 0.04,-0.23 0.08,-0.33 0.05,-0.09 0.1,-0.18 0.17,-0.28 0.06,-0.09 0.14,-0.19 0.25,-0.3l1.76 -1.87c0.35,-0.37 0.63,-0.7 0.84,-1 0.22,-0.3 0.38,-0.58 0.5,-0.82 0.12,-0.25 0.21,-0.48 0.25,-0.69 0.05,-0.2 0.07,-0.41 0.07,-0.59 0,-0.17 -0.03,-0.34 -0.09,-0.49 -0.05,-0.15 -0.13,-0.29 -0.24,-0.4 -0.11,-0.12 -0.24,-0.2 -0.4,-0.27 -0.16,-0.07 -0.35,-0.1 -0.57,-0.1 -0.31,0 -0.58,0.04 -0.82,0.12 -0.24,0.08 -0.45,0.17 -0.63,0.26 -0.18,0.1 -0.33,0.19 -0.45,0.27 -0.12,0.08 -0.21,0.12 -0.28,0.12 -0.05,0 -0.09,-0.01 -0.12,-0.05 -0.03,-0.03 -0.06,-0.08 -0.08,-0.15 -0.02,-0.08 -0.04,-0.17 -0.05,-0.3 -0.02,-0.12 -0.02,-0.27 -0.02,-0.45 0,-0.12 0,-0.22 0.01,-0.3 0.01,-0.08 0.02,-0.15 0.04,-0.21 0.01,-0.06 0.03,-0.11 0.06,-0.16 0.02,-0.04 0.07,-0.1 0.13,-0.16 0.07,-0.06 0.19,-0.14 0.36,-0.24 0.18,-0.1 0.39,-0.19 0.65,-0.28 0.26,-0.09 0.54,-0.17 0.85,-0.23 0.3,-0.06 0.62,-0.1 0.96,-0.1 0.53,0 0.99,0.07 1.38,0.2 0.39,0.14 0.72,0.32 0.98,0.56 0.27,0.24 0.46,0.52 0.59,0.84 0.12,0.33 0.19,0.68 0.19,1.06 0,0.32 -0.03,0.65 -0.1,0.97 -0.06,0.32 -0.19,0.66 -0.39,1.03 -0.19,0.36 -0.48,0.77 -0.84,1.22 -0.36,0.44 -0.83,0.96 -1.43,1.55l-1.18 1.21 3.99 0c0.05,0 0.1,0.02 0.14,0.05 0.05,0.03 0.08,0.08 0.12,0.14 0.03,0.07 0.05,0.15 0.06,0.26 0.02,0.11 0.03,0.23 0.03,0.38z"/>
   <path id="10" class="fil2" d="M168.42 47.36c0,0.81 -0.06,1.54 -0.2,2.19 -0.13,0.66 -0.34,1.21 -0.63,1.67 -0.3,0.46 -0.68,0.81 -1.16,1.05 -0.47,0.25 -1.05,0.37 -1.73,0.37 -0.7,0 -1.27,-0.11 -1.72,-0.35 -0.46,-0.24 -0.82,-0.58 -1.08,-1.03 -0.27,-0.44 -0.46,-0.99 -0.56,-1.63 -0.11,-0.65 -0.16,-1.37 -0.16,-2.19 0,-0.8 0.06,-1.53 0.2,-2.18 0.13,-0.66 0.34,-1.21 0.64,-1.67 0.29,-0.46 0.68,-0.82 1.15,-1.06 0.47,-0.24 1.05,-0.37 1.73,-0.37 0.69,0 1.27,0.12 1.72,0.36 0.46,0.24 0.82,0.58 1.09,1.02 0.26,0.45 0.45,0.99 0.55,1.64 0.11,0.64 0.16,1.37 0.16,2.18zm-2.07 0.11c0,-0.48 -0.01,-0.9 -0.04,-1.27 -0.03,-0.37 -0.06,-0.68 -0.12,-0.96 -0.05,-0.27 -0.12,-0.5 -0.2,-0.68 -0.08,-0.19 -0.18,-0.34 -0.3,-0.45 -0.12,-0.11 -0.25,-0.19 -0.39,-0.24 -0.15,-0.05 -0.31,-0.07 -0.49,-0.07 -0.31,0 -0.57,0.07 -0.77,0.22 -0.2,0.15 -0.36,0.37 -0.48,0.67 -0.12,0.3 -0.2,0.67 -0.24,1.11 -0.05,0.44 -0.08,0.96 -0.08,1.54 0,0.72 0.03,1.32 0.09,1.79 0.06,0.47 0.15,0.85 0.27,1.13 0.12,0.27 0.28,0.47 0.48,0.58 0.19,0.11 0.42,0.17 0.7,0.17 0.2,0 0.38,-0.03 0.54,-0.1 0.16,-0.06 0.29,-0.16 0.42,-0.29 0.11,-0.13 0.21,-0.29 0.29,-0.49 0.08,-0.2 0.14,-0.43 0.19,-0.69 0.05,-0.26 0.09,-0.56 0.1,-0.89 0.02,-0.32 0.03,-0.68 0.03,-1.08z"/>
   <path id="11" class="fil2" d="M176.24 51.68c0,0.15 -0.01,0.27 -0.03,0.38 -0.01,0.1 -0.04,0.18 -0.06,0.24 -0.03,0.06 -0.07,0.1 -0.1,0.13 -0.04,0.02 -0.08,0.04 -0.13,0.04l-5.6 0c-0.04,0 -0.08,-0.02 -0.11,-0.04 -0.04,-0.03 -0.07,-0.07 -0.1,-0.13 -0.03,-0.06 -0.05,-0.14 -0.07,-0.24 -0.01,-0.11 -0.02,-0.23 -0.02,-0.38 0,-0.14 0,-0.27 0.02,-0.38 0.01,-0.1 0.03,-0.18 0.06,-0.24 0.03,-0.06 0.06,-0.11 0.1,-0.14 0.04,-0.03 0.08,-0.04 0.12,-0.04l1.89 0 0 -6.58 -1.62 0.89c-0.12,0.06 -0.22,0.1 -0.29,0.11 -0.08,0.01 -0.14,0 -0.19,-0.05 -0.04,-0.04 -0.07,-0.12 -0.08,-0.23 -0.02,-0.11 -0.03,-0.26 -0.03,-0.46 0,-0.13 0.01,-0.23 0.01,-0.31 0.01,-0.08 0.02,-0.15 0.04,-0.21 0.02,-0.05 0.05,-0.1 0.09,-0.14 0.03,-0.03 0.08,-0.07 0.14,-0.12l2.18 -1.4c0.02,-0.02 0.06,-0.04 0.09,-0.05 0.04,-0.02 0.09,-0.03 0.16,-0.04 0.06,0 0.14,-0.01 0.24,-0.01 0.1,0 0.24,0 0.4,0 0.2,0 0.36,0 0.48,0.01 0.12,0 0.22,0.02 0.28,0.04 0.06,0.02 0.1,0.04 0.12,0.07 0.02,0.03 0.04,0.07 0.04,0.12l0 8.36 1.65 0c0.05,0 0.09,0.01 0.13,0.04 0.04,0.03 0.07,0.08 0.1,0.14 0.03,0.06 0.05,0.14 0.07,0.24 0.01,0.11 0.02,0.24 0.02,0.38z"/>
   <path id="12" class="fil2" d="M184.45 43.2c0,0.16 0,0.29 -0.01,0.4 -0.01,0.11 -0.03,0.22 -0.05,0.31 -0.01,0.1 -0.04,0.19 -0.07,0.28 -0.03,0.08 -0.07,0.17 -0.11,0.27l-3.33 7.73c-0.03,0.07 -0.07,0.13 -0.12,0.17 -0.05,0.04 -0.12,0.07 -0.21,0.1 -0.09,0.02 -0.2,0.04 -0.34,0.04 -0.14,0.01 -0.31,0.02 -0.51,0.02 -0.28,0 -0.49,-0.01 -0.66,-0.03 -0.16,-0.02 -0.28,-0.05 -0.35,-0.09 -0.08,-0.04 -0.12,-0.09 -0.12,-0.15 -0.01,-0.06 0.01,-0.13 0.05,-0.22l3.57 -7.91 -4.25 0c-0.11,0 -0.19,-0.07 -0.25,-0.21 -0.05,-0.15 -0.08,-0.38 -0.08,-0.69 0,-0.15 0.01,-0.29 0.02,-0.4 0.02,-0.11 0.04,-0.2 0.07,-0.28 0.03,-0.07 0.06,-0.12 0.1,-0.15 0.04,-0.03 0.09,-0.05 0.14,-0.05l6.02 0c0.1,0 0.17,0.01 0.23,0.03 0.07,0.02 0.12,0.06 0.15,0.12 0.04,0.06 0.07,0.15 0.09,0.26 0.02,0.12 0.02,0.27 0.02,0.45z"/>
   <g>
    <path class="fil3" d="M32.72 46.42l0.12 0 0 -0.55 0.11 0 0 -0.33 0.11 0 0 -0.11 0.11 0 0 -0.23 0.11 0 0 -0.11 0.11 0 0 -0.11 0.11 0 0 -0.11 0.11 0 0 -0.11 0.23 0 0 -0.11 0.22 0 0 -0.11 0.33 0 0 -0.12 1.11 0 0 0.12 0.34 0 0 0.11 0.22 0 0 0.11 0.11 0 0 0.11 0.22 0 0 0.11 0.11 0 0 0.11 0.11 0 0 0.11 0.12 0 0 0.23 0.11 0 0 0.22 0.11 0 0 0.22 0.11 0 0 1.33 -0.11 0 0 0.34 -0.11 0 0 0.22 -0.11 0 0 0.11 -0.12 0 0 0.11 -0.11 0 0 0.11 -0.11 0 0 0.11 -0.11 0 0 0.11 -0.11 0 0 0.12 -0.22 0 0 0.11 -0.23 0 0 0.11 -0.44 0 0 0.11 -0.67 0 0 -0.11 -0.44 0 0 -0.11 -0.22 0 0 -0.11 -0.22 0 0 -0.12 -0.12 0 0 -0.11 -0.11 0 0 -0.11 -0.11 0 0 -0.11 -0.11 0 0 -0.11 -0.11 0 0 -0.11 -0.11 0 0 -0.22 -0.11 0 0 -0.23 -0.11 0 0 -0.66 -0.12 0 0 -0.23zm9.23 -24.11l-0.11 0 0 0.56 -0.11 0 0 0.33 -0.11 0 0 0.33 -0.12 0 0 0.23 -0.11 0 0 0.33 -0.11 0 0 0.22 -0.11 0 0 0.11 -0.11 0 0 0.22 -0.11 0 0 0.23 -0.11 0 0 0.11 -0.11 0 0 0.22 -0.12 0 0 0.11 -0.11 0 0 0.11 -0.11 0 0 0.23 -0.11 0 0 0.11 -0.11 0 0 0.11 -0.11 0 0 0.11 -0.11 0 0 0.11 -0.11 0 0 0.11 -0.11 0 0 0.11 -0.12 0 0 0.11 -0.11 0 0 0.11 -0.11 0 0 0.11 -0.22 0 0 0.12 -0.11 0 0 0.11 -0.11 0 0 0.11 -0.23 0 0 0.11 -0.11 0 0 0.11 -0.22 0 0 0.11 -0.11 0 0 0.11 -0.22 0 0 0.11 -0.22 0 0 0.11 -0.23 0 0 0.12 -0.22 0 0 0.11 -0.33 0 0 0.11 -0.33 0 0 0.11 -0.34 0 0 0.11 -0.55 0 0 0.11 -14 0 0 0.11 -1.01 0 0 0.11 -0.55 0 0 0.12 -0.45 0 0 0.11 -0.33 0 0 0.11 -0.22 0 0 0.11 -0.22 0 0 0.11 -0.22 0 0 0.11 -0.23 0 0 0.11 -0.22 0 0 0.11 -0.11 0 0 0.11 -0.22 0 0 0.12 -0.11 0 0 0.11 -0.12 0 0 0.11 -0.11 0 0 0.11 -0.11 0 0 0.11 -0.11 0 0 0.11 -0.11 0 0 0.11 -0.11 0 0 0.11 -0.11 0 0 0.11 -0.11 0 0 0.23 -0.11 0 0 0.11 -0.12 0 0 0.22 -0.11 0 0 0.11 -0.11 0 0 0.22 -0.11 0 0 0.23 -0.11 0 0 0.22 -0.11 0 0 0.33 -0.11 0 0 0.33 -0.11 0 0 0.45 -0.12 0 0 0.44 -0.11 0 0 0.78 -0.11 0 0 5.89 0.11 0 0 3.89 0.11 0 0 3 0.12 0 0 0.44 0.11 0 0 0.34 0.11 0 0 0.22 0.11 0 0 0.22 0.11 0 0 0.23 0.11 0 0 0.22 0.11 0 0 0.11 0.11 0 0 0.11 0.12 0 0 0.22 0.11 0 0 0.11 0.11 0 0 0.11 0.11 0 0 0.12 0.11 0 0 0.11 0.11 0 0 0.11 0.11 0 0 0.11 0.22 0 0 0.11 0.12 0 0 0.11 0.11 0 0 0.11 0.11 0 0 0.11 0.22 0 0 0.11 0.11 0 0 0.12 0.22 0 0 0.11 0.23 0 0 0.11 0.11 0 0 0.11 0.22 0 0 0.11 0.22 0 0 0.11 0.22 0 0 0.11 0.34 0 0 0.11 0.22 0 0 0.11 0.22 0 0 0.12 0.33 0 0 0.11 0.34 0 0 0.11 0.33 0 0 0.11 0.45 0 0 0.11 0.33 0 0 0.11 0.56 0 0 0.11 0.55 0 0 0.11 0.56 0 0 0.11 0.77 0 0 0.12 1.23 0 0 0.11 4.33 0 0 -0.11 1.22 0 0 -0.12 0.89 0 0 -0.11 0.67 0 0 -0.11 0.55 0 0 -0.11 0.56 0 0 -0.11 0.44 0 0 -0.11 0.34 0 0 -0.11 0.44 0 0 -0.11 0.33 0 0 -0.11 0.34 0 0 -0.12 0.22 0 0 -0.11 0.33 0 0 -0.11 0.23 0 0 -0.11 0.22 0 0 -0.11 0.22 0 0 -0.11 0.22 0 0 -0.11 0.23 0 0 -0.11 0.11 0 0 -0.11 0.22 0 0 -0.12 0.11 0 0 -0.11 0.22 0 0 -0.11 0.11 0 0 -0.11 0.11 0 0 -0.11 0.11 0 0 -0.11 0.12 0 0 -0.11 0.11 0 0 -0.11 0.11 0 0 -0.11 0.11 0 0 -0.12 0.11 0 0 -0.11 0.11 0 0 -0.11 0.11 0 0 -0.22 0.11 0 0 -0.11 0.12 0 0 -0.22 0.11 0 0 -0.23 0.11 0 0 -0.33 0.11 0 0 -0.33 0.11 0 0 -6.45 -12.11 0 0 -1.78 18.55 0 0 -0.11 0.56 0 0 -0.11 0.45 0 0 -0.11 0.33 0 0 -0.11 0.22 0 0 -0.11 0.22 0 0 -0.11 0.23 0 0 -0.11 0.22 0 0 -0.12 0.22 0 0 -0.11 0.22 0 0 -0.11 0.11 0 0 -0.11 0.23 0 0 -0.11 0.11 0 0 -0.11 0.11 0 0 -0.11 0.11 0 0 -0.11 0.22 0 0 -0.11 0.11 0 0 -0.11 0.11 0 0 -0.12 0.11 0 0 -0.11 0.12 0 0 -0.11 0.11 0 0 -0.11 0.11 0 0 -0.22 0.11 0 0 -0.11 0.11 0 0 -0.11 0.11 0 0 -0.11 0.11 0 0 -0.23 0.11 0 0 -0.11 0.11 0 0 -0.22 0.12 0 0 -0.11 0.11 0 0 -0.22 0.11 0 0 -0.23 0.11 0 0 -0.22 0.11 0 0 -0.22 0.11 0 0 -0.22 0.11 0 0 -0.23 0.11 0 0 -0.33 0.11 0 0 -0.22 0.12 0 0 -0.33 0.11 0 0 -0.34 0.11 0 0 -0.44 0.11 0 0 -0.45 0.11 0 0 -0.55 0.11 0 0 -0.56 0.11 0 0 -0.78 0.11 0 0 -1.11 0.11 0 0 -4 -0.11 0 0 -1.22 -0.11 0 0 -0.78 -0.11 0 0 -0.66 -0.11 0 0 -0.56 -0.11 0 0 -0.44 -0.11 0 0 -0.45 -0.11 0 0 -0.33 -0.11 0 0 -0.45 -0.12 0 0 -0.22 -0.11 0 0 -0.33 -0.11 0 0 -0.34 -0.11 0 0 -0.22 -0.11 0 0 -0.22 -0.11 0 0 -0.22 -0.11 0 0 -0.22 -0.11 0 0 -0.23 -0.11 0 0 -0.22 -0.12 0 0 -0.11 -0.11 0 0 -0.22 -0.11 0 0 -0.11 -0.11 0 0 -0.23 -0.11 0 0 -0.11 -0.11 0 0 -0.11 -0.11 0 0 -0.22 -0.11 0 0 -0.11 -0.11 0 0 -0.11 -0.12 0 0 -0.11 -0.11 0 0 -0.11 -0.11 0 0 -0.12 -0.11 0 0 -0.11 -0.11 0 0 -0.11 -0.11 0 0 -0.11 -0.22 0 0 -0.11 -0.11 0 0 -0.11 -0.12 0 0 -0.11 -0.22 0 0 -0.11 -0.11 0 0 -0.12 -0.22 0 0 -0.11 -0.22 0 0 -0.11 -0.23 0 0 -0.11 -0.22 0 0 -0.11 -0.33 0 0 -0.11 -0.33 0 0 -0.11 -0.45 0 0 -0.11 -5.22 0 0 7.33z"/>
    <path class="fil4" d="M22.95 9.42l0 0.11 -0.11 0 0 0.22 -0.12 0 0 0.23 -0.11 0 0 0.11 -0.22 0 0 0.11 -0.22 0 0 0.11 -0.22 0 0 0.11 -0.11 0 0 0.11 -0.34 0 0 0.11 -0.89 0 0 -0.11 -0.33 0 0 -0.11 -0.33 0 0 -0.11 -0.12 0 0 -0.11 -0.22 0 0 -0.22 -0.11 0 0 -0.11 -0.22 0 0 -0.12 -0.11 0 0 -0.33 -0.11 0 0 -0.22 -0.11 0 0 -0.11 -0.11 0 0 -1.34 0.11 0 0 -0.33 0.11 0 0 -0.22 0.11 0 0 -0.11 0.11 0 0 -0.22 0.11 0 0 -0.12 0.11 0 0 -0.11 0.22 0 0 -0.11 0.23 0 0 -0.11 0.22 0 0 -0.11 0.11 0 0 -0.11 0.55 0 0 -0.11 0.45 0 0 0.11 0.44 0 0 0.11 0.34 0 0 0.11 0.22 0 0 0.22 0.22 0 0 0.11 0.11 0 0 0.12 0.11 0 0 0.22 0.23 0 0 0.33 0.11 0 0 0.11 0.11 0 0 0.33 0.11 0 0 1.01 -0.11 0 0 0.22 -0.11 0 0 0.33 -0.11 0zm2.22 -6.89l0 0.11 -1.11 0 0 0.11 -0.78 0 0 0.12 -0.56 0 0 0.11 -0.55 0 0 0.11 -0.56 0 0 0.11 -0.44 0 0 0.11 -0.34 0 0 0.11 -0.33 0 0 0.11 -0.33 0 0 0.11 -0.34 0 0 0.11 -0.22 0 0 0.11 -0.44 0 0 0.12 -0.22 0 0 0.11 -0.23 0 0 0.11 -0.22 0 0 0.11 -0.11 0 0 0.11 -0.11 0 0 0.11 -0.33 0 0 0.22 -0.34 0 0 0.23 -0.11 0 0 0.11 -0.22 0 0 0.11 -0.11 0 0 0.11 -0.11 0 0 0.11 -0.11 0 0 0.11 -0.12 0 0 0.11 -0.11 0 0 0.23 -0.22 0 0 0.33 -0.22 0 0 0.22 -0.11 0 0 0.22 -0.11 0 0 0.45 -0.12 0 0 0.55 -0.11 0 0 6.12 12.12 0 0 1.77 -18.12 0 0 0.11 -0.77 0 0 0.11 -0.45 0 0 0.12 -0.33 0 0 0.11 -0.45 0 0 0.11 -0.11 0 0 0.11 -0.22 0 0 0.11 -0.22 0 0 0.11 -0.22 0 0 0.11 -0.34 0 0 0.23 -0.33 0 0 0.22 -0.22 0 0 0.11 -0.11 0 0 0.11 -0.23 0 0 0.11 -0.11 0 0 0.11 -0.11 0 0 0.22 -0.22 0 0 0.12 -0.11 0 0 0.11 -0.11 0 0 0.22 -0.11 0 0 0.11 -0.12 0 0 0.22 -0.22 0 0 0.34 -0.22 0 0 0.33 -0.22 0 0 0.22 -0.11 0 0 0.33 -0.11 0 0 0.23 -0.12 0 0 0.22 -0.11 0 0 0.11 -0.11 0 0 0.22 -0.11 0 0 0.45 -0.11 0 0 0.33 -0.11 0 0 0.33 -0.11 0 0 0.34 -0.11 0 0 0.44 -0.11 0 0 0.45 -0.12 0 0 0.55 -0.11 0 0 0.67 -0.11 0 0 0.89 -0.11 0 0 1.77 -0.11 0 0 1.67 0.11 0 0 1.89 0.11 0 0 0.89 0.11 0 0 0.78 0.11 0 0 0.55 0.12 0 0 0.56 0.11 0 0 0.44 0.11 0 0 0.45 0.11 0 0 0.33 0.11 0 0 0.33 0.11 0 0 0.45 0.11 0 0 0.11 0.11 0 0 0.22 0.11 0 0 0.45 0.12 0 0 0.22 0.11 0 0 0.22 0.11 0 0 0.11 0.11 0 0 0.11 0.11 0 0 0.34 0.11 0 0 0.11 0.11 0 0 0.11 0.11 0 0 0.22 0.11 0 0 0.22 0.23 0 0 0.23 0.11 0 0 0.11 0.11 0 0 0.11 0.11 0 0 0.22 0.11 0 0 0.11 0.11 0 0 0.11 0.22 0 0 0.11 0.12 0 0 0.11 0.11 0 0 0.12 0.22 0 0 0.22 0.22 0 0 0.11 0.11 0 0 0.11 0.34 0 0 0.11 0.11 0 0 0.11 0.11 0 0 0.11 0.44 0 0 0.12 0.23 0 0 0.11 0.33 0 0 0.11 0.22 0 0 0.11 0.56 0 0 0.11 4.89 0 0 -7.33 0.11 0 0 -0.56 0.11 0 0 -0.33 0.11 0 0 -0.34 0.11 0 0 -0.33 0.11 0 0 -0.22 0.11 0 0 -0.22 0.11 0 0 -0.23 0.11 0 0 -0.11 0.12 0 0 -0.11 0.11 0 0 -0.33 0.22 0 0 -0.22 0.11 0 0 -0.23 0.22 0 0 -0.11 0.11 0 0 -0.22 0.11 0 0 -0.11 0.11 0 0 -0.11 0.12 0 0 -0.11 0.11 0 0 -0.11 0.11 0 0 -0.12 0.11 0 0 -0.11 0.11 0 0 -0.11 0.22 0 0 -0.22 0.11 0 0 -0.11 0.34 0 0 -0.22 0.22 0 0 -0.12 0.11 0 0 -0.11 0.33 0 0 -0.11 0.23 0 0 -0.11 0.22 0 0 -0.11 0.22 0 0 -0.11 0.11 0 0 -0.11 0.45 0 0 -0.11 0.22 0 0 -0.11 0.33 0 0 -0.12 0.56 0 0 -0.11 14.11 0 0 -0.11 0.89 0 0 -0.11 0.55 0 0 -0.11 0.45 0 0 -0.11 0.22 0 0 -0.11 0.45 0 0 -0.11 0.11 0 0 -0.11 0.22 0 0 -0.11 0.33 0 0 -0.12 0.11 0 0 -0.11 0.23 0 0 -0.22 0.22 0 0 -0.11 0.11 0 0 -0.11 0.22 0 0 -0.11 0.11 0 0 -0.23 0.11 0 0 -0.11 0.11 0 0 -0.22 0.12 0 0 -0.11 0.11 0 0 -0.11 0.11 0 0 -0.22 0.11 0 0 -0.11 0.11 0 0 -0.12 0.11 0 0 -0.22 0.11 0 0 -0.44 0.11 0 0 -0.22 0.12 0 0 -0.34 0.11 0 0 -0.44 0.11 0 0 -0.45 0.11 0 0 -0.77 0.11 0 0 -6 -0.11 0 0 -3.89 -0.11 0 0 -2.89 -0.11 0 0 -0.45 -0.11 0 0 -0.33 -0.12 0 0 -0.22 -0.11 0 0 -0.23 -0.11 0 0 -0.33 -0.11 0 0 -0.11 -0.11 0 0 -0.22 -0.22 0 0 -0.22 -0.11 0 0 -0.12 -0.12 0 0 -0.11 -0.11 0 0 -0.11 -0.11 0 0 -0.11 -0.11 0 0 -0.11 -0.11 0 0 -0.11 -0.22 0 0 -0.22 -0.22 0 0 -0.12 -0.23 0 0 -0.22 -0.33 0 0 -0.22 -0.22 0 0 -0.11 -0.33 0 0 -0.11 -0.23 0 0 -0.11 -0.22 0 0 -0.11 -0.22 0 0 -0.12 -0.11 0 0 -0.11 -0.45 0 0 -0.11 -0.11 0 0 -0.11 -0.44 0 0 -0.11 -0.34 0 0 -0.11 -0.33 0 0 -0.11 -0.44 0 0 -0.11 -0.45 0 0 -0.11 -0.55 0 0 -0.11 -0.56 0 0 -0.12 -0.67 0 0 -0.11 -1 0 0 -0.11 -1.77 0 0 -0.11 -1.78 0 0 0.11 -1.89 0z"/>
   </g>
  </g>
 </g>
</svg>
