<svg id="Layer_1" data-name="Layer 1" xmlns="http://www.w3.org/2000/svg" viewBox="0 0 184 210"><defs><style>.cls-1{fill:#fdd042;}.cls-2{fill:#3571a2;}.cls-3{fill:#769498;}.cls-4{fill:#bdc6b8;}.cls-5{fill:#8da49d;}.cls-6{fill:#6a8e98;}.cls-7{fill:#d3d8cc;}.cls-8{fill:#b4c0b2;}.cls-9{fill:#fefefd;}.cls-10{fill:#fdfdfd;}.cls-11,.cls-14{font-size:26px;font-family:PlantagenetCherokee, Plantagenet Cherokee;}.cls-11,.cls-15{fill:#5e5e5e;}.cls-12{fill:#747474;}.cls-13{fill:#959595;}.cls-14{fill:#dcdcdc;}</style></defs><title>pyconf logo</title><path class="cls-1" d="M15.74,46.64c0-1.72,0-3.44,0-5.17a11.4,11.4,0,0,1,.16-2.33,5.47,5.47,0,0,1,4-4.17,8,8,0,0,1,2.52-.36q5.3,0,10.59,0a10.13,10.13,0,0,0,2.72-.27,5.76,5.76,0,0,0,4-4,7.61,7.61,0,0,0,.36-2.38c0-1.67,0-3.35,0-5,0-.64,0-.64.62-.64,1.1,0,2.21,0,3.31,0a5,5,0,0,1,3.4,1.27A8.75,8.75,0,0,1,50.13,28a12.74,12.74,0,0,1,.54,3.81c0,1.49,0,3,0,4.46a10.58,10.58,0,0,1-2.14,6.39,6,6,0,0,1-5,2.48c-5.31,0-10.63,0-15.94.05-.38,0-.51.1-.46.47a3.34,3.34,0,0,1,0,.74c0,.3.09.37.37.37H35l3.27,0c.22,0,.3.06.3.29,0,1.76.06,3.52,0,5.28a3.62,3.62,0,0,1-1.53,2.76,8.85,8.85,0,0,1-3.95,1.71,29.24,29.24,0,0,1-8.76.4,15.54,15.54,0,0,1-4.89-1.14,6.18,6.18,0,0,1-3.36-3,3.37,3.37,0,0,1-.34-1.5c0-1.67,0-3.34,0-5Zm15.88,5.08a2.07,2.07,0,0,0,2,2.09,2.12,2.12,0,0,0,2.08-2,2.08,2.08,0,0,0-2.08-2.07A2,2,0,0,0,31.62,51.72Z"/><path class="cls-2" d="M38.55,27.31a5.72,5.72,0,0,1-5.81,5.8h-7a.57.57,0,0,0-.17.06l-1,0H21a.53.53,0,0,0-.17.06,6.47,6.47,0,0,0-3,.49,5.9,5.9,0,0,0-3.26,3.92,6.64,6.64,0,0,0-.3,2.21c0,.59,0,1.19,0,1.78-.1.12-.06.26-.06.39,0,1,0,2,0,2.93,0,.47,0,.47-.49.47H9.48a5.59,5.59,0,0,1-3.41-2A10.3,10.3,0,0,1,4,38.91a16.23,16.23,0,0,1-.47-3.64v-2.6A14.27,14.27,0,0,1,5,26.41a6.67,6.67,0,0,1,4.75-3.75c.12,0,.24,0,.37,0h.11l16.07,0c.11,0,.22,0,.32-.06s.42.07.6-.08a3.14,3.14,0,0,0,0-1.49h0c-.26-.15-.55,0-.82-.06h-5l-1.56,0c-.12-.1-.26-.06-.39-.06l-3.61,0,0-5.94a3.13,3.13,0,0,1,1-1.92A7.94,7.94,0,0,1,20.56,11a16.56,16.56,0,0,1,3.1-.54c.67,0,1.35-.11,2-.14h2.67a19.67,19.67,0,0,1,6.21,1.13,9.12,9.12,0,0,1,1.61.83,5.36,5.36,0,0,1,2.37,3.25q0,4.74,0,9.49C38.54,25.8,38.55,26.55,38.55,27.31ZM20.66,14a2,2,0,0,0-2,2,2.05,2.05,0,1,0,4.1,0A2,2,0,0,0,20.66,14Z"/><path class="cls-3" d="M26.57,22.56c-.09.09-.21.06-.32.06l-16.07,0h-.11a2.89,2.89,0,0,1,.92-.07H26.57Z"/><path class="cls-4" d="M38.55,27.31c0-.75,0-1.51,0-2.26q0-4.74,0-9.49c.11.11.07.26.07.39q0,5.44,0,10.89A.78.78,0,0,1,38.55,27.31Z"/><path class="cls-3" d="M9.48,45.45h4.19c.49,0,.49,0,.49-.47,0-1,0-2,0-2.93,0-.13,0-.27.06-.39,0,1.21,0,2.42,0,3.63,0,.18-.07.24-.24.24l-4.26,0A1.09,1.09,0,0,1,9.48,45.45Z"/><path class="cls-5" d="M15.79,14.89q0,3,0,5.94a.37.37,0,0,0,0,.06c-.1-.05-.07-.15-.07-.23q0-2.71,0-5.41A.58.58,0,0,1,15.79,14.89Z"/><path class="cls-6" d="M25.61,33.17a.57.57,0,0,1,.17-.06H31l0,.05Z"/><path class="cls-6" d="M15.8,20.89a.37.37,0,0,1,0-.06l3.61,0c.13,0,.27,0,.39.06Z"/><path class="cls-7" d="M20.84,33.25a.53.53,0,0,1,.17-.06h3.34a.85.85,0,0,1-.21.05Z"/><path class="cls-4" d="M28.36,10.35H25.69a7.71,7.71,0,0,1,1.72-.06A2.32,2.32,0,0,1,28.36,10.35Z"/><path class="cls-8" d="M3.52,32.66v2.6A9.78,9.78,0,0,1,3.52,32.66Z"/><path class="cls-7" d="M21.37,20.92H23.9V21H21.58A.27.27,0,0,1,21.37,20.92Z"/><path class="cls-8" d="M23.9,21v-.05h2.45V21Z"/><path class="cls-8" d="M31,33.17l0-.05h1.7A7.53,7.53,0,0,1,31,33.17Z"/><path class="cls-5" d="M27.17,21a3.14,3.14,0,0,1,0,1.49Z"/><path class="cls-5" d="M26.36,21v-.05c.27,0,.56-.09.82.06Z"/><path class="cls-7" d="M24.49,33.19h.07S24.52,33.22,24.49,33.19Z"/><path class="cls-9" d="M31.62,51.72a2,2,0,0,1,2-2,2.08,2.08,0,0,1,2.08,2.07,2.12,2.12,0,0,1-2.08,2A2.07,2.07,0,0,1,31.62,51.72Z"/><path class="cls-10" d="M20.66,14a2,2,0,0,1,2.06,2,2.05,2.05,0,1,1-4.1,0A2,2,0,0,1,20.66,14Z"/><text class="cls-11" transform="translate(53.09 21.38)">Pyconf<tspan class="cls-12"><tspan x="0" y="31.2">Hyderabad</tspan></tspan></text><text class="cls-11" transform="translate(53.17 94.08)">Pyconf<tspan class="cls-13"><tspan x="0" y="31.2">Hyderabad</tspan></tspan></text><path class="cls-1" d="M15.91,186.7c0-1.72,0-3.44,0-5.17a11.4,11.4,0,0,1,.16-2.33A5.47,5.47,0,0,1,20,175a8,8,0,0,1,2.52-.36q5.3,0,10.59,0a10.13,10.13,0,0,0,2.72-.27,5.76,5.76,0,0,0,4-4,7.61,7.61,0,0,0,.36-2.38c0-1.67,0-3.35,0-5,0-.64,0-.64.62-.64,1.1,0,2.21,0,3.31,0a5,5,0,0,1,3.4,1.27,8.75,8.75,0,0,1,2.68,4.49,12.74,12.74,0,0,1,.54,3.81c0,1.49,0,3,0,4.46a10.58,10.58,0,0,1-2.14,6.39,6,6,0,0,1-5,2.48c-5.31,0-10.63,0-15.94.05-.38,0-.51.1-.46.47a3.34,3.34,0,0,1,0,.74c0,.3.09.37.37.37h7.47l3.27,0c.22,0,.3.06.3.29,0,1.76.06,3.52,0,5.28a3.62,3.62,0,0,1-1.53,2.76,8.85,8.85,0,0,1-3.95,1.71,29.24,29.24,0,0,1-8.76.4,15.54,15.54,0,0,1-4.89-1.14,6.18,6.18,0,0,1-3.36-3,3.37,3.37,0,0,1-.34-1.5c0-1.67,0-3.34,0-5Zm15.88,5.08a2.07,2.07,0,0,0,2,2.09,2.12,2.12,0,0,0,2.08-2,2.08,2.08,0,0,0-2.08-2.07A2,2,0,0,0,31.79,191.78Z"/><path class="cls-2" d="M38.73,167.36a5.72,5.72,0,0,1-5.81,5.8H26a.57.57,0,0,0-.17.06l-1,0H21.18a.53.53,0,0,0-.17.06,6.47,6.47,0,0,0-3,.49,5.9,5.9,0,0,0-3.26,3.92,6.64,6.64,0,0,0-.3,2.21c0,.59,0,1.19,0,1.78-.1.12-.06.26-.06.39,0,1,0,2,0,2.93,0,.47,0,.47-.49.47H9.65a5.59,5.59,0,0,1-3.41-2A10.3,10.3,0,0,1,4.16,179a16.23,16.23,0,0,1-.47-3.64v-2.6a14.27,14.27,0,0,1,1.43-6.25,6.67,6.67,0,0,1,4.75-3.75c.12,0,.24,0,.37,0h.11l16.07,0c.11,0,.22,0,.32-.06s.42.07.6-.08a3.14,3.14,0,0,0,0-1.49h0c-.26-.15-.55,0-.82-.06h-5L20,161c-.12-.1-.26-.06-.39-.06l-3.61,0,0-5.94A3.13,3.13,0,0,1,17,153a7.94,7.94,0,0,1,3.74-1.94,16.56,16.56,0,0,1,3.1-.54c.67,0,1.35-.11,2-.14h2.67a19.67,19.67,0,0,1,6.21,1.13,9.12,9.12,0,0,1,1.61.83,5.36,5.36,0,0,1,2.37,3.25q0,4.74,0,9.49C38.72,165.86,38.72,166.61,38.73,167.36ZM20.84,154.06a2,2,0,0,0-2,2,2.05,2.05,0,1,0,4.1,0A2,2,0,0,0,20.84,154.06Z"/><path class="cls-3" d="M26.75,162.62c-.09.09-.21.06-.32.06l-16.07,0h-.11a2.89,2.89,0,0,1,.92-.07H26.75Z"/><path class="cls-4" d="M38.73,167.36c0-.75,0-1.51,0-2.26q0-4.74,0-9.49c.11.11.07.26.07.39q0,5.44,0,10.89A.78.78,0,0,1,38.73,167.36Z"/><path class="cls-3" d="M9.65,185.51h4.19c.49,0,.49,0,.49-.47,0-1,0-2,0-2.93,0-.13,0-.27.06-.39,0,1.21,0,2.42,0,3.63,0,.18-.07.24-.24.24l-4.26,0A1.09,1.09,0,0,1,9.65,185.51Z"/><path class="cls-5" d="M16,154.95q0,3,0,5.94a.37.37,0,0,0,0,.06c-.1-.05-.07-.15-.07-.23q0-2.71,0-5.41A.58.58,0,0,1,16,154.95Z"/><path class="cls-6" d="M25.79,173.23a.57.57,0,0,1,.17-.06h5.27l0,.05Z"/><path class="cls-6" d="M16,161a.37.37,0,0,1,0-.06l3.61,0c.13,0,.27,0,.39.06Z"/><path class="cls-7" d="M21,173.31a.53.53,0,0,1,.17-.06h3.34a.85.85,0,0,1-.21.05Z"/><path class="cls-4" d="M28.53,150.41H25.86a7.71,7.71,0,0,1,1.72-.06A2.32,2.32,0,0,1,28.53,150.41Z"/><path class="cls-8" d="M3.7,172.72v2.6A9.78,9.78,0,0,1,3.7,172.72Z"/><path class="cls-7" d="M21.55,161h2.52V161H21.75A.27.27,0,0,1,21.55,161Z"/><path class="cls-8" d="M24.08,161V161h2.45V161Z"/><path class="cls-8" d="M31.2,173.23l0-.05h1.7A7.53,7.53,0,0,1,31.2,173.23Z"/><path class="cls-5" d="M27.35,161a3.14,3.14,0,0,1,0,1.49Z"/><path class="cls-5" d="M26.53,161V161c.27,0,.56-.09.82.06Z"/><path class="cls-7" d="M24.67,173.25h.07S24.69,173.28,24.67,173.25Z"/><path class="cls-9" d="M31.79,191.78a2,2,0,0,1,2-2,2.08,2.08,0,0,1,2.08,2.07,2.12,2.12,0,0,1-2.08,2A2.07,2.07,0,0,1,31.79,191.78Z"/><path class="cls-10" d="M20.84,154.06a2,2,0,0,1,2.06,2,2.05,2.05,0,1,1-4.1,0A2,2,0,0,1,20.84,154.06Z"/><text class="cls-14" transform="translate(53.3 166.02)">Pyconf<tspan x="0" y="31.2">Hyderabad</tspan></text><path class="cls-13" d="M17,115.22c0-1.72,0-3.44,0-5.17a11.4,11.4,0,0,1,.16-2.33,5.47,5.47,0,0,1,4-4.17,8,8,0,0,1,2.52-.36q5.3,0,10.59,0a10.13,10.13,0,0,0,2.72-.27,5.76,5.76,0,0,0,4-4,7.61,7.61,0,0,0,.36-2.38c0-1.67,0-3.35,0-5,0-.64,0-.64.62-.64,1.1,0,2.21,0,3.31,0a5,5,0,0,1,3.4,1.27,8.75,8.75,0,0,1,2.68,4.49,12.74,12.74,0,0,1,.54,3.81c0,1.49,0,3,0,4.46a10.58,10.58,0,0,1-2.14,6.39,6,6,0,0,1-5,2.48c-5.31,0-10.63,0-15.94.05-.38,0-.51.1-.46.47a3.34,3.34,0,0,1,0,.74c0,.3.09.37.37.37h7.47l3.27,0c.22,0,.3.06.3.29,0,1.76.06,3.52,0,5.28a3.62,3.62,0,0,1-1.53,2.76,8.85,8.85,0,0,1-3.95,1.71,29.24,29.24,0,0,1-8.76.4,15.54,15.54,0,0,1-4.89-1.14,6.18,6.18,0,0,1-3.36-3,3.37,3.37,0,0,1-.34-1.5c0-1.67,0-3.34,0-5Zm15.88,5.08a2.07,2.07,0,0,0,2,2.09,2.12,2.12,0,0,0,2.08-2,2.08,2.08,0,0,0-2.08-2.07A2,2,0,0,0,32.85,120.3Z"/><path class="cls-15" d="M39.78,95.89a5.72,5.72,0,0,1-5.81,5.8H27a.57.57,0,0,0-.17.06l-1,0H22.24a.53.53,0,0,0-.17.06,6.47,6.47,0,0,0-3,.49,5.9,5.9,0,0,0-3.26,3.92,6.64,6.64,0,0,0-.3,2.21c0,.59,0,1.19,0,1.78-.1.12-.06.26-.06.39,0,1,0,2,0,2.93,0,.47,0,.47-.49.47H10.71a5.59,5.59,0,0,1-3.41-2,10.3,10.3,0,0,1-2.08-4.54,16.23,16.23,0,0,1-.47-3.64v-2.6A14.27,14.27,0,0,1,6.19,95a6.67,6.67,0,0,1,4.75-3.75c.12,0,.24,0,.37,0h.11l16.07,0c.11,0,.22,0,.32-.06s.42.07.6-.08a3.14,3.14,0,0,0,0-1.49h0c-.26-.15-.55,0-.82-.06h-5l-1.56,0c-.12-.1-.26-.06-.39-.06l-3.61,0,0-5.94a3.13,3.13,0,0,1,1-1.92,7.94,7.94,0,0,1,3.74-1.94,16.56,16.56,0,0,1,3.1-.54c.67,0,1.35-.11,2-.14h2.67a19.67,19.67,0,0,1,6.21,1.13,9.12,9.12,0,0,1,1.61.83,5.36,5.36,0,0,1,2.37,3.25q0,4.74,0,9.49C39.78,94.38,39.78,95.13,39.78,95.89ZM21.9,82.58a2,2,0,0,0-2,2,2.05,2.05,0,1,0,4.1,0A2,2,0,0,0,21.9,82.58Z"/></svg>